<svg width="688" height="118" viewBox="0 0 688 118" fill="none" xmlns="http://www.w3.org/2000/svg">
<g clip-path="url(#clip0_99_6)">
<path fill-rule="evenodd" clip-rule="evenodd" d="M7.95 38.655C-2.65 49.255 -2.65 66.439 7.95 77.038L38.655 107.744C49.255 118.343 66.439 118.343 77.038 107.744L107.744 77.038C118.343 66.438 118.343 49.254 107.744 38.655L77.038 7.95C66.438 -2.649 49.254 -2.649 38.655 7.95L7.95 38.655ZM71.28 71.281C78.7 63.861 78.7 51.832 71.28 44.413C63.861 36.993 51.832 36.993 44.413 44.413C36.993 51.833 36.993 63.861 44.413 71.281C51.833 78.7 63.861 78.7 71.281 71.281H71.28Z" fill="#2962FF"/>
<path d="M161.437 78.362C161.48 69.813 166.705 64.804 174.218 64.804C181.688 64.804 186.092 69.597 186.049 77.758V116.705H204.443V74.476C204.486 58.932 195.332 49.519 181.515 49.519C171.455 49.519 164.719 54.269 161.696 62.084H160.919V28.276H143.043V116.705H161.437V78.362V78.362ZM232.967 117.957C242.768 117.957 249.115 113.682 252.354 107.508H252.872V116.705H270.316V71.972C270.316 56.169 256.931 49.519 242.164 49.519C226.274 49.519 215.825 57.119 213.277 69.209L230.29 70.59C231.542 66.186 235.471 62.948 242.077 62.948C248.338 62.948 251.922 66.1 251.922 71.54V71.8C251.922 76.074 247.388 76.635 235.86 77.758C222.733 78.967 210.946 83.371 210.946 98.181C210.946 111.307 220.315 117.957 232.967 117.957V117.957ZM238.234 105.262C232.578 105.262 228.519 102.629 228.519 97.577C228.519 92.395 232.794 89.847 239.271 88.941C243.286 88.38 249.849 87.43 252.051 85.961V93C252.051 99.951 246.309 105.262 238.234 105.262ZM334.904 69.295C333.264 57.075 323.419 49.519 306.666 49.519C289.697 49.519 278.514 57.378 278.557 70.159C278.514 80.089 284.775 86.523 297.728 89.114L309.213 91.402C314.999 92.568 317.633 94.684 317.719 98.008C317.633 101.938 313.358 104.744 306.925 104.744C300.362 104.744 296.001 101.938 294.878 96.54L276.787 97.49C278.514 110.185 289.308 118 306.882 118C324.067 118 336.372 109.235 336.416 96.152C336.372 86.566 330.112 80.823 317.245 78.19L305.241 75.772C299.066 74.433 296.778 72.317 296.821 69.122C296.778 65.15 301.269 62.559 306.968 62.559C313.358 62.559 317.158 66.057 318.065 70.331L334.904 69.295V69.295ZM361.529 78.362C361.572 69.813 366.796 64.804 374.309 64.804C381.779 64.804 386.183 69.597 386.14 77.758V116.705H404.534V74.476C404.577 58.932 395.423 49.519 381.606 49.519C371.546 49.519 364.81 54.269 361.788 62.084H361.01V28.276H343.135V116.705H361.529V78.362ZM432.54 78.362C432.583 69.813 437.678 64.804 445.105 64.804C452.488 64.804 456.936 69.64 456.892 77.758V116.705H475.286V74.476C475.286 59.019 466.219 49.519 452.402 49.519C442.557 49.519 435.433 54.355 432.454 62.084H431.676V50.383H414.146V116.705H432.54V78.362V78.362ZM514.885 118C535.007 118 547.528 104.226 547.528 83.803C547.528 63.25 535.007 49.519 514.885 49.519C494.764 49.519 482.243 63.25 482.243 83.803C482.243 104.226 494.764 118 514.885 118ZM514.972 103.751C505.689 103.751 500.939 95.245 500.939 83.673C500.939 72.101 505.689 63.553 514.972 63.553C524.082 63.553 528.832 72.102 528.832 83.673C528.832 95.245 524.082 103.751 514.972 103.751ZM579.064 117.784C589.772 117.784 595.342 111.61 597.89 106.083H598.667V116.705H616.802V28.275H598.451V61.523H597.89C595.428 56.126 590.117 49.519 579.021 49.519C564.47 49.519 552.164 60.832 552.164 83.63C552.164 105.824 563.952 117.784 579.064 117.784V117.784ZM584.893 103.147C575.869 103.147 570.946 95.115 570.946 83.544C570.946 72.058 575.782 64.157 584.893 64.157C593.831 64.157 598.84 71.713 598.84 83.544C598.84 95.374 593.744 103.147 584.893 103.147V103.147ZM657.286 118C673.694 118 684.747 110.012 687.338 97.706L670.326 96.584C668.469 101.635 663.72 104.269 657.588 104.269C648.391 104.269 642.562 98.181 642.562 88.293V88.25H687.727V83.198C687.727 60.659 674.082 49.519 656.552 49.519C637.035 49.519 624.384 63.379 624.384 83.846C624.384 104.874 636.863 118 657.286 118V118ZM642.562 76.851C642.951 69.295 648.694 63.25 656.854 63.25C664.842 63.25 670.369 68.95 670.412 76.851H642.562Z" fill="black"/>
</g>
<defs>
<clipPath id="clip0_99_6">
<rect width="688" height="118" fill="white"/>
</clipPath>
</defs>
</svg>
